<svg  viewBox="0 0 246 62" fill="none" xmlns="http://www.w3.org/2000/svg">
<path id="logo" d="M24.512 3.552C22.208 3.68 20.512 3.936 19.424 4.32C18.4 4.704 17.696 5.44 17.312 6.528C16.928 7.616 16.736 9.376 16.736 11.808V49.824C16.736 52.256 16.928 54.016 17.312 55.104C17.696 56.192 18.4 56.928 19.424 57.312C20.512 57.632 22.208 57.792 24.512 57.792H30.56C34.976 57.792 38.4 56.48 40.832 53.856C43.328 51.232 44.832 46.88 45.344 40.8H47.552C47.36 42.784 47.264 45.408 47.264 48.672C47.264 52 47.488 55.776 47.936 60C43.776 59.808 36.768 59.712 26.912 59.712C15.072 59.712 6.112 59.808 0.0320003 60V58.08C2.336 57.952 4 57.696 5.024 57.312C6.112 56.928 6.848 56.192 7.232 55.104C7.616 54.016 7.808 52.256 7.808 49.824V11.808C7.808 9.376 7.616 7.616 7.232 6.528C6.848 5.44 6.112 4.704 5.024 4.32C4 3.936 2.336 3.68 0.0320003 3.552V1.632C2.72 1.824 6.816 1.92 12.32 1.92C17.44 1.92 21.504 1.824 24.512 1.632V3.552ZM83.8123 0.287996C89.7003 0.287996 94.8523 1.472 99.2683 3.84C103.748 6.144 107.204 9.568 109.636 14.112C112.068 18.592 113.284 23.968 113.284 30.24C113.284 36.384 112.004 41.824 109.444 46.56C106.948 51.232 103.46 54.88 98.9803 57.504C94.5003 60.064 89.4123 61.344 83.7163 61.344C77.8283 61.344 72.6443 60.192 68.1643 57.888C63.7483 55.52 60.3243 52.096 57.8923 47.616C55.4603 43.072 54.2443 37.664 54.2443 31.392C54.2443 25.248 55.4923 19.84 57.9883 15.168C60.5483 10.432 64.0683 6.784 68.5483 4.224C73.0283 1.6 78.1163 0.287996 83.8123 0.287996ZM83.4283 2.016C79.5243 2.016 76.0683 3.264 73.0603 5.76C70.1163 8.192 67.8443 11.616 66.2443 16.032C64.6443 20.384 63.8443 25.376 63.8443 31.008C63.8443 36.704 64.7403 41.728 66.5323 46.08C68.3243 50.432 70.7563 53.792 73.8282 56.16C76.9003 58.464 80.3243 59.616 84.1003 59.616C88.0043 59.616 91.4283 58.4 94.3723 55.968C97.3803 53.472 99.6843 50.048 101.284 45.696C102.884 41.28 103.684 36.256 103.684 30.624C103.684 24.928 102.788 19.904 100.996 15.552C99.2043 11.2 96.7723 7.872 93.7003 5.568C90.6283 3.2 87.2043 2.016 83.4283 2.016ZM152.136 0.287996C155.72 0.287996 158.6 0.799997 160.776 1.824C163.016 2.848 165.384 4.416 167.88 6.528C168.712 7.168 169.352 7.488 169.8 7.488C171.016 7.488 171.816 5.536 172.2 1.632H174.408C174.152 5.28 174.024 11.68 174.024 20.832H171.816C171.304 18.4 170.664 16.256 169.896 14.4C169.192 12.544 168.232 10.912 167.016 9.504C164.904 7.072 162.696 5.216 160.392 3.936C158.088 2.656 155.272 2.016 151.944 2.016C148.104 2.016 144.776 3.2 141.96 5.568C139.144 7.872 136.968 11.2 135.432 15.552C133.896 19.904 133.128 25.024 133.128 30.912C133.128 40.704 134.92 47.904 138.504 52.512C142.088 57.12 147.432 59.424 154.536 59.424C157.288 59.424 159.752 59.168 161.928 58.656C163.08 58.4 163.848 57.984 164.232 57.408C164.68 56.832 164.904 56.032 164.904 55.008V46.752C164.904 44.064 164.648 42.112 164.136 40.896C163.624 39.68 162.728 38.848 161.448 38.4C160.168 37.952 158.088 37.664 155.208 37.536V35.616C158.664 35.808 163.176 35.904 168.744 35.904C173.096 35.904 176.424 35.808 178.728 35.616V37.536C177.256 37.664 176.2 37.92 175.56 38.304C174.92 38.688 174.472 39.424 174.216 40.512C173.96 41.6 173.832 43.36 173.832 45.792V60H171.912C171.784 58.464 171.304 57.696 170.472 57.696C170.088 57.696 169.384 57.92 168.36 58.368C167.336 58.816 166.632 59.104 166.248 59.232C162.152 60.64 157.96 61.344 153.672 61.344C144.072 61.344 136.648 58.784 131.4 53.664C126.152 48.48 123.528 41.248 123.528 31.968C123.528 25.568 124.744 20 127.176 15.264C129.608 10.464 132.968 6.784 137.256 4.224C141.608 1.6 146.568 0.287996 152.136 0.287996ZM216.469 0.287996C222.357 0.287996 227.509 1.472 231.925 3.84C236.405 6.144 239.861 9.568 242.293 14.112C244.725 18.592 245.941 23.968 245.941 30.24C245.941 36.384 244.661 41.824 242.101 46.56C239.605 51.232 236.117 54.88 231.637 57.504C227.157 60.064 222.069 61.344 216.373 61.344C210.485 61.344 205.301 60.192 200.821 57.888C196.405 55.52 192.981 52.096 190.549 47.616C188.117 43.072 186.901 37.664 186.901 31.392C186.901 25.248 188.149 19.84 190.645 15.168C193.205 10.432 196.725 6.784 201.205 4.224C205.685 1.6 210.773 0.287996 216.469 0.287996ZM216.085 2.016C212.181 2.016 208.725 3.264 205.717 5.76C202.773 8.192 200.501 11.616 198.901 16.032C197.301 20.384 196.501 25.376 196.501 31.008C196.501 36.704 197.397 41.728 199.189 46.08C200.981 50.432 203.413 53.792 206.484 56.16C209.557 58.464 212.981 59.616 216.757 59.616C220.661 59.616 224.085 58.4 227.029 55.968C230.037 53.472 232.341 50.048 233.941 45.696C235.541 41.28 236.341 36.256 236.341 30.624C236.341 24.928 235.445 19.904 233.653 15.552C231.861 11.2 229.429 7.872 226.357 5.568C223.285 3.2 219.861 2.016 216.085 2.016Z" fill="white"/>
</svg>
